# xmcd CD database file
#
# Track frame offsets:
#	180
#	17100
#	33572
#
# Disc length: 694 seconds
#
# Revision: 1
# Processed by: cddbd v1.5.2PL0 Copyright (c) Steve Scherf et al.
# Submitted via: CDex 1.77
#
DISCID=1d02b403
DTITLE=Daryl Braithwaite - One Summer
DYEAR=1989
DGENRE=Pop
TTITLE0=One Summe
TTITLE1=Pretending To Care
TTITLE2=Up-Out
EXTD=YEAR: 1989
EXTT0=
EXTT1=
EXTT2=
PLAYORDER=
